<svg viewBox="39 35.699999999999996 71.7 79.2" xmlns="http://www.w3.org/2000/svg" id="RGB_Icons" style="max-height: 500px" width="71.7" height="79.2"><g><path fill="#fff" d="M46,96.5c-.28,0-.5-.22-.5-.5v-29c0-16.27,13.23-29.5,29.5-29.5s29.5,13.23,29.5,29.5v29c0,.28-.22,.5-.5,.5H46Z"/><path fill="#2d2d2d" d="M75,38c16.02,0,29,12.98,29,29v29H46v-29c0-16.02,12.98-29,29-29m0-1c-16.54,0-30,13.46-30,30v29c0,.55,.45,1,1,1h58c.55,0,1-.45,1-1v-29c0-16.54-13.46-30-30-30h0Z"/></g><g><path fill="#fff" d="M61,96.5c-.28,0-.5-.22-.5-.5v-28c0-8,6.5-14.5,14.5-14.5s14.5,6.5,14.5,14.5v28c0,.28-.22,.5-.5,.5h-28Z"/><path fill="#2d2d2d" d="M75,54c7.73,0,14,6.27,14,14v28h-28v-28c0-7.73,6.27-14,14-14m0-1c-8.27,0-15,6.73-15,15v28c0,.55,.45,1,1,1h28c.55,0,1-.45,1-1v-28c0-8.27-6.73-15-15-15h0Z"/></g><g><rect fill="#fff" ry=".5" rx=".5" height="16" width="53" y="96.5" x="48.5"/><path fill="#2d2d2d" d="M101,97v15H49v-15h52m0-1H49c-.55,0-1,.45-1,1v15c0,.55,.45,1,1,1h52c.55,0,1-.45,1-1v-15c0-.55-.45-1-1-1h0Z"/></g><g><rect fill="#fff" ry=".5" rx=".5" height="16" width="13" y="96.5" x="84.5"/><path fill="#2d2d2d" d="M97,97v15h-12v-15h12m0-1h-12c-.55,0-1,.45-1,1v15c0,.55,.45,1,1,1h12c.55,0,1-.45,1-1v-15c0-.55-.45-1-1-1h0Z"/></g><g><rect fill="#fff" ry=".5" rx=".5" height="16" width="13" y="96.5" x="52.5"/><path fill="#2d2d2d" d="M65,97v15h-12v-15h12m0-1h-12c-.55,0-1,.45-1,1v15c0,.55,.45,1,1,1h12c.55,0,1-.45,1-1v-15c0-.55-.45-1-1-1h0Z"/></g><g><circle fill="#fff" r="2.5" cy="46" cx="75"/><path fill="#2d2d2d" d="M75,44c1.1,0,2,.9,2,2s-.9,2-2,2-2-.9-2-2,.9-2,2-2m0-1c-1.65,0-3,1.35-3,3s1.35,3,3,3,3-1.35,3-3-1.35-3-3-3h0Z"/></g><g><circle fill="#fff" r="2.5" cy="46" cx="67"/><path fill="#2d2d2d" d="M67,44c1.1,0,2,.9,2,2s-.9,2-2,2-2-.9-2-2,.9-2,2-2m0-1c-1.65,0-3,1.35-3,3s1.35,3,3,3,3-1.35,3-3-1.35-3-3-3h0Z"/></g><g><circle fill="#fff" r="2.5" cy="46" cx="83"/><path fill="#2d2d2d" d="M83,44c1.1,0,2,.9,2,2s-.9,2-2,2-2-.9-2-2,.9-2,2-2m0-1c-1.65,0-3,1.35-3,3s1.35,3,3,3,3-1.35,3-3-1.35-3-3-3h0Z"/></g><g><path fill="#fff" d="M106.18,73.85c-.43,0-.86-.12-1.22-.35l-4.98-3.09c-.54-.33-.91-.86-1.04-1.47-.13-.61-.01-1.24,.34-1.76,.43-.64,1.15-1.02,1.93-1.02,.43,0,.86,.12,1.22,.35l4.98,3.09c.54,.33,.91,.86,1.04,1.47,.13,.61,.01,1.24-.34,1.76-.43,.64-1.15,1.02-1.93,1.02Z"/><path fill="#2d2d2d" d="M101.21,66.65c.33,0,.66,.09,.96,.27l4.98,3.09c.87,.54,1.12,1.68,.55,2.53-.35,.52-.92,.8-1.51,.8-.33,0-.66-.09-.96-.27l-4.98-3.09c-.87-.54-1.12-1.68-.55-2.53,.35-.52,.92-.8,1.51-.8m0-1h0c-.94,0-1.82,.47-2.34,1.25-.43,.64-.57,1.4-.41,2.14,.16,.75,.61,1.39,1.26,1.79l4.98,3.09c.45,.28,.96,.42,1.49,.42,.94,0,1.82-.47,2.34-1.25,.43-.64,.57-1.4,.41-2.14-.16-.75-.61-1.39-1.26-1.79l-4.98-3.09c-.45-.28-.96-.42-1.49-.42h0Z"/></g><g><path fill="#fff" d="M106.18,81.85c-.43,0-.86-.12-1.22-.35l-4.98-3.09c-.54-.33-.91-.86-1.04-1.47-.13-.61-.01-1.24,.34-1.76,.43-.64,1.15-1.02,1.93-1.02,.43,0,.86,.12,1.22,.35l4.98,3.09c.54,.33,.91,.86,1.04,1.47,.13,.61,.01,1.24-.34,1.76-.43,.64-1.15,1.02-1.93,1.02Z"/><path fill="#2d2d2d" d="M101.21,74.65c.33,0,.66,.09,.96,.27l4.98,3.09c.87,.54,1.12,1.68,.55,2.53-.35,.52-.92,.8-1.51,.8-.33,0-.66-.09-.96-.27l-4.98-3.09c-.87-.54-1.12-1.68-.55-2.53,.35-.52,.92-.8,1.51-.8m0-1h0c-.94,0-1.82,.47-2.34,1.25-.43,.64-.57,1.4-.41,2.14,.16,.75,.61,1.39,1.26,1.79l4.98,3.09c.45,.28,.96,.42,1.49,.42,.94,0,1.82-.47,2.34-1.25,.43-.64,.57-1.4,.41-2.14-.16-.75-.61-1.39-1.26-1.79l-4.98-3.09c-.45-.28-.96-.42-1.49-.42h0Z"/></g><g><path fill="#fff" d="M106.18,89.85c-.43,0-.86-.12-1.22-.35l-4.98-3.09c-.54-.33-.91-.86-1.04-1.47-.13-.61-.01-1.24,.34-1.76,.43-.64,1.15-1.02,1.93-1.02,.43,0,.86,.12,1.22,.35l4.98,3.09c.54,.33,.91,.86,1.04,1.47,.13,.61,.01,1.24-.34,1.76-.43,.64-1.15,1.02-1.93,1.02Z"/><path fill="#2d2d2d" d="M101.21,82.65c.33,0,.66,.09,.96,.27l4.98,3.09c.87,.54,1.12,1.68,.55,2.53-.35,.52-.92,.8-1.51,.8-.33,0-.66-.09-.96-.27l-4.98-3.09c-.87-.54-1.12-1.68-.55-2.53,.35-.52,.92-.8,1.51-.8m0-1h0c-.94,0-1.82,.47-2.34,1.25-.43,.64-.57,1.4-.41,2.14,.16,.75,.61,1.39,1.26,1.79l4.98,3.09c.45,.28,.96,.42,1.49,.42,.94,0,1.82-.47,2.34-1.25,.43-.64,.57-1.4,.41-2.14-.16-.75-.61-1.39-1.26-1.79l-4.98-3.09c-.45-.28-.96-.42-1.49-.42h0Z"/></g><g><path fill="#fff" d="M48.79,73.85c-.43,0-.86-.12-1.22-.35l-4.98-3.09c-.54-.33-.91-.86-1.04-1.47-.13-.61-.01-1.24,.34-1.76,.43-.64,1.15-1.02,1.93-1.02,.43,0,.86,.12,1.22,.35l4.98,3.09c.54,.33,.91,.86,1.04,1.47,.13,.61,.01,1.24-.34,1.76-.43,.64-1.15,1.02-1.93,1.02Z"/><path fill="#2d2d2d" d="M43.82,66.65c.33,0,.66,.09,.96,.27l4.98,3.09c.87,.54,1.12,1.68,.55,2.53-.35,.52-.92,.8-1.51,.8-.33,0-.66-.09-.96-.27l-4.98-3.09c-.87-.54-1.12-1.68-.55-2.53,.35-.52,.92-.8,1.51-.8m0-1h0c-.94,0-1.82,.47-2.34,1.25-.43,.64-.57,1.4-.41,2.14,.16,.75,.61,1.39,1.26,1.79l4.98,3.09c.45,.28,.96,.42,1.49,.42,.94,0,1.82-.47,2.34-1.25,.43-.64,.57-1.4,.41-2.14-.16-.75-.61-1.39-1.26-1.79l-4.98-3.09c-.45-.28-.96-.42-1.49-.42h0Z"/></g><g><path fill="#fff" d="M48.79,81.85c-.43,0-.86-.12-1.22-.35l-4.98-3.09c-.54-.33-.91-.86-1.04-1.47-.13-.61-.01-1.24,.34-1.76,.43-.64,1.15-1.02,1.93-1.02,.43,0,.86,.12,1.22,.35l4.98,3.09c.54,.33,.91,.86,1.04,1.47,.13,.61,.01,1.24-.34,1.76-.43,.64-1.15,1.02-1.93,1.02Z"/><path fill="#2d2d2d" d="M43.82,74.65c.33,0,.66,.09,.96,.27l4.98,3.09c.87,.54,1.12,1.68,.55,2.53-.35,.52-.92,.8-1.51,.8-.33,0-.66-.09-.96-.27l-4.98-3.09c-.87-.54-1.12-1.68-.55-2.53,.35-.52,.92-.8,1.51-.8m0-1h0c-.94,0-1.82,.47-2.34,1.25-.43,.64-.57,1.4-.41,2.14,.16,.75,.61,1.39,1.26,1.79l4.98,3.09c.45,.28,.96,.42,1.49,.42,.94,0,1.82-.47,2.34-1.25,.43-.64,.57-1.4,.41-2.14-.16-.75-.61-1.39-1.26-1.79l-4.98-3.09c-.45-.28-.96-.42-1.49-.42h0Z"/></g><g><path fill="#fff" d="M48.79,89.85c-.43,0-.86-.12-1.22-.35l-4.98-3.09c-.54-.33-.91-.86-1.04-1.47-.13-.61-.01-1.24,.34-1.76,.43-.64,1.15-1.02,1.93-1.02,.43,0,.86,.12,1.22,.35l4.98,3.09c.54,.33,.91,.86,1.04,1.47,.13,.61,.01,1.24-.34,1.76-.43,.64-1.15,1.02-1.93,1.02Z"/><path fill="#2d2d2d" d="M43.82,82.65c.33,0,.66,.09,.96,.27l4.98,3.09c.87,.54,1.12,1.68,.55,2.53-.35,.52-.92,.8-1.51,.8-.33,0-.66-.09-.96-.27l-4.98-3.09c-.87-.54-1.12-1.68-.55-2.53,.35-.52,.92-.8,1.51-.8m0-1h0c-.94,0-1.82,.47-2.34,1.25-.43,.64-.57,1.4-.41,2.14,.16,.75,.61,1.39,1.26,1.79l4.98,3.09c.45,.28,.96,.42,1.49,.42,.94,0,1.82-.47,2.34-1.25,.43-.64,.57-1.4,.41-2.14-.16-.75-.61-1.39-1.26-1.79l-4.98-3.09c-.45-.28-.96-.42-1.49-.42h0Z"/></g></svg>